# xmcd
#
# Track frame offsets: 
#        150
#        24202
#        59651
#        87406
#        115692
#        139002
#        166493
#        198984
#        228896
#        256461
#        288037
#        305030
#        328428
#
# Disc length: 4733 seconds
#
# Revision: 1
# Processed by: cddbd v1.5.2PL0 Copyright (c) Steve Scherf et al.
# Submitted via: ExactAudioCopy v0.95b4
#
DISCID=b7127b0d
DTITLE=ccchb - cfb 
DYEAR=1998
DGENRE=Children's Music
TTITLE0=bb
TTITLE1=bbb
TTITLE2=bb
TTITLE3=bbcd
TTITLE4=bbb
TTITLE5=gsd 
TTITLE6=cv nvhj
TTITLE7=c b sd
TTITLE8=bcvbf
TTITLE9=ffhghf
TTITLE10=fhhfggf
TTITLE11=hdff
TTITLE12=gfdgfd
EXTD=nvhrbf
EXTT0=
EXTT1=
EXTT2=
EXTT3=
EXTT4=
EXTT5=
EXTT6=
EXTT7=
EXTT8=
EXTT9=
EXTT10=
EXTT11=
EXTT12=
PLAYORDER=
